<svg width="24" height="24" viewBox="0 0 24 24" fill="none" xmlns="http://www.w3.org/2000/svg">
<path fill-rule="evenodd" clip-rule="evenodd" d="M16.7358 2.25C17.5319 2.25 18.319 2.41633 19.0518 2.73828C19.7844 3.06023 20.4473 3.53105 21.0034 4.12109L21.2065 4.34717C21.6673 4.88622 22.0363 5.50403 22.2979 6.17334C22.5967 6.93826 22.75 7.75688 22.75 8.58252C22.75 9.40823 22.5967 10.2272 22.2979 10.9922C22.0363 11.6615 21.6673 12.2793 21.2065 12.8184L21.0034 13.0444L12.5454 22.0146C12.4037 22.1649 12.206 22.25 11.9995 22.25C11.7931 22.2499 11.5957 22.1648 11.4541 22.0146L2.99609 13.0444C1.87359 11.854 1.25 10.2482 1.25 8.58252C1.25006 6.91695 1.87365 5.31148 2.99609 4.12109C4.12 2.92915 5.65407 2.25049 7.26367 2.25049C8.87325 2.25051 10.4074 2.92917 11.5312 4.12109L11.9995 4.61768L12.4683 4.12109L12.6816 3.90527C13.1911 3.41552 13.7789 3.01999 14.4199 2.73828C15.1527 2.41631 15.9398 2.25001 16.7358 2.25Z" fill="#FF299C"/>
</svg>
